inDegrees=no
num_controls=7
num_derivatives=13
num_iterations=126
num_multipliers=7
num_parameters=0
num_slacks=7
num_states=26
objective=0.476859
objective_accelerations=0.044609
objective_balance=0.003681
objective_effort=0.040863
objective_height=0.382051
objective_ligament=0.005656
solver_duration=1736.980135
status=Solve_Succeeded
success=true
DataType=double
version=3
OpenSimVersion=4.5
endheader
time	/jointset/ground_pelvis/pelvis_tilt/value	/jointset/ground_pelvis/pelvis_tx/value	/jointset/ground_pelvis/pelvis_ty/value	/jointset/hip_l/hip_flexion_l/value	/jointset/hip_l/hip_adduction_l/value	/jointset/hip_l/hip_rotation_l/value	/jointset/back/lumbar_extension/value	/jointset/patellofemoral_l/patellar_flexion_l/value	/jointset/knee_l/knee_flexion_l/value	/jointset/knee_l/knee_adduction_l/value	/jointset/knee_l/knee_rotation_l/value	/jointset/ankle_l/ankle_angle_l/value	/jointset/subtalar_l/subtalar_angle_l/value	/jointset/ground_pelvis/pelvis_tilt/speed	/jointset/ground_pelvis/pelvis_tx/speed	/jointset/ground_pelvis/pelvis_ty/speed	/jointset/hip_l/hip_flexion_l/speed	/jointset/hip_l/hip_adduction_l/speed	/jointset/hip_l/hip_rotation_l/speed	/jointset/back/lumbar_extension/speed	/jointset/patellofemoral_l/patellar_flexion_l/speed	/jointset/knee_l/knee_flexion_l/speed	/jointset/knee_l/knee_adduction_l/speed	/jointset/knee_l/knee_rotation_l/speed	/jointset/ankle_l/ankle_angle_l/speed	/jointset/subtalar_l/subtalar_angle_l/speed	/forceset/tau_hip_flexion_l	/forceset/tau_hip_adduction_l	/forceset/tau_hip_rotation_l	/forceset/tau_knee_flexion_l	/forceset/tau_ankle_angle_l	/forceset/tau_subtalar_angle_l	/forceset/tau_lumbar_extension	lambda_cid13_p0	lambda_cid13_p1	lambda_cid13_p2	lambda_cid13_p3	lambda_cid13_p4	lambda_cid13_p5	lambda_cid14_p0	/jointset/ground_pelvis/pelvis_tilt/accel	/jointset/ground_pelvis/pelvis_tx/accel	/jointset/ground_pelvis/pelvis_ty/accel	/jointset/hip_l/hip_flexion_l/accel	/jointset/hip_l/hip_adduction_l/accel	/jointset/hip_l/hip_rotation_l/accel	/jointset/back/lumbar_extension/accel	/jointset/patellofemoral_l/patellar_flexion_l/accel	/jointset/knee_l/knee_flexion_l/accel	/jointset/knee_l/knee_adduction_l/accel	/jointset/knee_l/knee_rotation_l/accel	/jointset/ankle_l/ankle_angle_l/accel	/jointset/subtalar_l/subtalar_angle_l/accel	gamma_cid13_p0	gamma_cid13_p1	gamma_cid13_p2	gamma_cid13_p3	gamma_cid13_p4	gamma_cid13_p5	gamma_cid14_p0
0	-0.03678236183443147	0.05665982865615343	0.9203423183598635	0.3085816938045678	-0.295628501422857	-0.3013480920406718	-0.3879492264334186	0.2499269421185044	0.2499269421184919	-0.1745325211812973	-0.174278380305505	-0.0008036623358878681	0.0004466872782806068	0	0	0	0	0	0	0	0	0	0	0	0	0	0.06722606469834426	-0.04186061079852307	-0.01916902896344469	-0.2374139791192875	0.1839549073728774	-0.01620729663385836	0.006705334858470183	15.53820545844602	1.662888978981281	2.313588422346128	10.64207597001911	-623.1794185844185	-70.99777383957839	-23.18829964001936	-1.015598007130824	-2.0055087561116	-0.9200439231898824	9.280375749705177	-0.8094477418420439	3.2691122124251	-7.051742357363272	9.411751145488813	9.411751145489035	1.348099624914745	-0.1223876820269907	1.686119327353081	-0.2958612144584716	-2.277859361176448e-09	1.185992453492924e-07	2.634106062150249e-08	2.809695143196776e-09	5.703796946803563e-08	1.172873188948355e-08	6.68214020650477e-09
0.01	-0.03682961185209728	0.05656053944249838	0.9202971740192127	0.3090353703692068	-0.2956694929623859	-0.3011830424653435	-0.3883032431889346	0.2503889606025278	0.2503889606025283	-0.1744693392007946	-0.1742805886966113	-0.0007217906587984052	0.000430494805461894	-0.009429302190708783	-0.0197774738409652	-0.009009831001207596	0.0904032932524915	-0.008192543513215373	0.03294061437706778	-0.07058841890872676	0.09205524594789183	0.09205524594788726	0.01251527354414493	-0.0003955776672762147	0.01630775809545516	-0.003255253764792497	0.06558569309260252	-0.05215157146517101	-0.01899047669001833	-0.2375063526021089	0.1815409288776328	-0.005792142752419499	0.008630543833098043	15.09489740902202	-2.680783084684992	2.889569612940941	9.827147800693874	-624.6681551361376	-80.078471774798	-23.19367702114453	-0.9034958181198081	-1.951810803512132	-0.8885857116614522	8.870499369573224	-0.8233160841341618	3.296143106210677	-7.030151827867503	9.050142354514129	9.050142354513508	1.185095994997302	0.00877266469048457	1.59311975407887	-0.3428931405547533	-3.225694753695908e-08	1.373121427280756e-07	1.32933016908946e-07	2.357433085520715e-08	-2.244220570248898e-08	-4.673625719121426e-08	-5.151459750759212e-09
0.02	-0.03697053479029889	0.05626588666934807	0.9201625047639347	0.3103831185176708	-0.2957922416226602	-0.3006906653350691	-0.3893566961675884	0.2517610777530553	0.2517610777530551	-0.1742846335296677	-0.1742853697696169	-0.0004788382600670911	0.0003812426583822085	-0.01873458410451454	-0.03907271189905191	-0.01790498292543348	0.1788143167670626	-0.01635142414934256	0.0654655109886586	-0.1398872446270095	0.1820197332987746	0.1820197332987734	0.02430473812160591	-0.0005145363838182195	0.03221614432839197	-0.006611934852191591	0.06394532148684402	-0.06244253213183217	-0.01881192441668686	-0.2375987260849302	0.1791269503823833	0.004623011129005314	0.01055575280772369	14.72460841027597	-7.035834191470176	3.465758595631421	8.900440491245595	-625.064237069963	-89.06832267737802	-23.20948815901025	-0.9907939517498656	-1.90906159953621	-0.8971081077935447	8.881921802121155	-0.8027151664243904	3.185968659329686	-6.793823719274275	8.993599426087066	8.993599426088863	1.202937831578009	-0.06706389188019228	1.606244954849073	-0.3161466789798911	-6.223603571274171e-08	1.560250401068589e-07	2.395249731963896e-07	4.433896656721753e-08	-1.019223808730136e-07	-1.052012462719121e-07	-1.698505970802319e-08
0.03	-0.03720356230298798	0.05578154610759489	0.9199394896967545	0.3126030644551399	-0.2959956681461642	-0.2998770989713768	-0.3910924352984712	0.2540213231786318	0.254021323178624	-0.1739846559105475	-0.1742911217947051	-7.811535316601697e-05	0.0002989351940247118	-0.02779712966296381	-0.05763030311796277	-0.02667228528449439	0.2646279070441805	-0.02425874076719097	0.09704372394774412	-0.2066445049440012	0.2695739418804236	0.2695739418804279	0.03565775431929624	-0.0006476831623032503	0.04793508468556227	-0.009768519234015291	0.0561612993003239	-0.0556869283536159	-0.01795015677912237	-0.2315890082929421	0.1745993760870369	0.002797087254217445	0.01770277200628292	13.13075390234896	-6.03913967802688	3.392956388866489	8.51994064454685	-627.2488104155685	-85.98334704818816	-23.23505921514408	-0.8529249604272312	-1.804334332166719	-0.8627002216680949	8.349022021368615	-0.7735242589239668	3.113112394890008	-6.524265696528919	8.56802352885445	8.568023528854173	1.096578984231057	0.01182449140749202	1.555716760664082	-0.3033108344618273	-8.553644818527562e-08	1.343539002556952e-07	2.862766852057903e-07	6.957698832499176e-08	-2.111862702499318e-07	-1.412518920005902e-07	-2.354104226014302e-08
0.04	-0.03752500329178053	0.05511658434383202	0.9196295698216427	0.3156647351715454	-0.2962759247057383	-0.2987538775219543	-0.3934772647342498	0.2571434490809497	0.2571434490809493	-0.1735721290353778	-0.1742985523751331	0.0004799965942090726	0.0001874825825132935	-0.03641727932275032	-0.07519695230099098	-0.03528594451179658	0.3471592725557527	-0.03171743136339648	0.1273965281345102	-0.2697053056056384	0.3543958286480989	0.3543958286481015	0.04681458933164778	-0.000850247451182573	0.06369395242325233	-0.01244096428296883	0.04837727711381472	-0.04893132457539796	-0.01708838914151947	-0.2255792905009526	0.1700718017916945	0.0009711633794322214	0.0248497912048489	11.60481095341787	-5.051222751099043	3.317997599123762	8.026287611824195	-628.429596358453	-82.81045826391228	-23.2695158310803	-0.9023147720169677	-1.710873192359975	-0.8663794814418065	8.225476849012079	-0.7129899620957887	2.940886904865791	-6.054531788203183	8.447135063292395	8.447135063292755	1.163701594510311	-0.08094739395908312	1.614230430952699	-0.2193188124059507	-1.086991560041343e-07	1.118500998430894e-07	3.317945777455408e-07	9.490724484659617e-08	-3.21064256826982e-07	-1.768403863199483e-07	-2.998820795854853e-08
0.05	-0.03793097931928455	0.05428032380692049	0.9192339192367515	0.3195373030025483	-0.2966286875636392	-0.2973329640814745	-0.3964762815231015	0.2611011313147776	0.261101131314779	-0.1730492867189398	-0.1743084449580984	0.001195392987602433	5.137130712179983e-05	-0.0447266886322619	-0.09194702666726412	-0.04384819448261053	0.4269431897211871	-0.03878144612298341	0.1566406451574222	-0.3297220347368531	0.4367415654211314	0.4367415654211356	0.05766814848315118	-0.001110088623381876	0.07932768348193234	-0.01474617962615487	0.04277280557055448	-0.04767825576551474	-0.01639856403616001	-0.2219871310670662	0.1658579993585424	0.002942261438932696	0.02976802567114121	10.35278645405149	-5.703499827916906	3.439635571519803	7.911420821357095	-628.6543167097074	-83.37071829210227	-23.31176096395217	-0.7875726540533097	-1.64083611131068	-0.8518161580940709	7.793171862175756	-0.6951103303163841	2.894300601324778	-5.918840860884134	8.068441129649621	8.068441129649589	1.033374972837887	0.004279115471718147	1.529295273480967	-0.2309113869971386	-1.237804058612891e-07	6.75700236294315e-08	3.812165912669373e-07	1.044182802435052e-07	-3.844875842779911e-07	-2.150740992925736e-07	-3.97267236374807e-08
